<svg xmlns="http://www.w3.org/2000/svg" width="22" height="12" fill="#00000000">
  <path fill="#000" d="M5 6h1v1H5zm0 2h1v1H5zm1 0h1v1H6zm0 1h1v1H6zm0 1h1v1H6zm1-1h1v1H7zm1-3h1v1H8zm0-1h1v1H8zm0 4h1v1H8zm0 1h1v1H8zm1-4h1v1H9zm0 3h1v1H9zm1-1h1v1h-1zm0 1h1v1h-1zm0 1h1v1h-1zm1-2h1v1h-1zm0 1h1v1h-1zm0 1h1v1h-1zm1-1h1v1h-1zm0 1h1v1h-1zm1 0h1v1h-1zm1 0h1v1h-1zM4 7h1v1H4zm1 0h1v1H5zm4 0h1v1H9zm1 0h1v1h-1z"/>
  <path fill="#000" d="M1 5h1v1H1zm12-3h1v1h-1zm6 0h1v1h-1z"/>
  <path fill="#000" d="M15 6h1v1h-1zm0-1h1v1h-1zm4 1h1v1h-1zm0-1h1v1h-1zm-2 2h1v1h-1z"/>
  <path fill="#000" d="M2 5h1v1H2zm1 1h1v1H3zm3 0h1v1H6zm0-1h1v1H6zm1 1h1v1H7zm0-1h1v1H7zm0 3h1v1H7zm1 0h1v1H8zm1 0h1v1H9zm2-2h1v1h-1zm0-1h1v1h-1zm1 1h1v1h-1zm0-1h1v1h-1zm0-1h1v1h-1zm0-1h1v1h-1zm0-1h1v1h-1zm0 6h1v1h-1zm1-2h1v1h-1zm0-1h1v1h-1zm0-1h1v1h-1zm0-1h1v1h-1zm0-2h1v1h-1zm0 7h1v1h-1zm0 1h1v1h-1zm1-3h1v1h-1zm0-1h1v1h-1zm0-1h1v1h-1zm0-1h1v1h-1zm0-1h1v1h-1zm0 6h1v1h-1zm0 1h1v1h-1zm1-5h1v1h-1zm0-1h1v1h-1zm0 5h1v1h-1zm0 1h1v1h-1zm1-3h1v1h-1zm0-1h1v1h-1zm0-1h1v1h-1zm0-1h1v1h-1zm0 5h1v1h-1zm0 1h1v1h-1zm1-3h1v1h-1zm0-1h1v1h-1zm0-1h1v1h-1zm0-1h1v1h-1zm0 5h1v1h-1zm0 1h1v1h-1zm1-3h1v1h-1zm0-1h1v1h-1zm0-1h1v1h-1zm0-1h1v1h-1zm0-1h1v1h-1zm0 6h1v1h-1zm0 1h1v1h-1zm1-5h1v1h-1zm0-1h1v1h-1zm0-2h1v1h-1zm0 7h1v1h-1zm1-2h1v1h-1zm0-1h1v1h-1zM6 7h1v1H6zm1 0h1v1H7zm1 0h1v1H8zm3 0h1v1h-1zm1 0h1v1h-1zm1 0h1v1h-1zm1 0h1v1h-1zm1 0h1v1h-1zm1 0h1v1h-1zm2 0h1v1h-1zm1 0h1v1h-1zm1 0h1v1h-1z"/>
  <path fill="#000" d="M0 5h1v1H0zm1-1h1v1H1zm0 2h1v1H1zm1-2h1v1H2zm0 2h1v1H2zm1-1h1v1H3zm1 1h1v1H4zm1-1h1v1H5zm0 4h1v1H5zm0 1h1v1H5zM4 8h1v1H4zm2-4h1v1H6zm0 7h1v1H6zm1-7h1v1H7zm0 6h1v1H7zm1-6h1v1H8zm0 7h1v1H8zm1-6h1v1H9zm0 5h1v1H9zm1-4h1v1h-1zm0-1h1v1h-1zm0 6h1v1h-1zm1-7h1v1h-1zm0-1h1v1h-1zm0-1h1v1h-1zm0 9h1v1h-1zm1-10h1v1h-1zm0 10h1v1h-1zm1-11h1v1h-1zm0 11h1v1h-1zm1-10h1v1h-1zm0 10h1v1h-1zm1-9h1v1h-1zm0 8h1v1h-1zm1-8h1v1h-1zm0 8h1v1h-1zm1-8h1v1h-1zm0 8h1v1h-1zm1-9h1v1h-1zm0 9h1v1h-1zm1-10h1v1h-1zm0 9h1v1h-1zm1-5h1v1h-1zm0-1h1v1h-1zm0-1h1v1h-1zm0-1h1v1h-1zm0 7h1v1h-1zm1-2h1v1h-1zm0-1h1v1h-1zM3 7h1v1H3zm18 0h1v1h-1z"/>
</svg>
