<svg width="25" height="25" fill="none" xmlns="http://www.w3.org/2000/svg">
  <g opacity=".4">
    <path fill="#967D67" d="M3 16h1v1H3z M4 17h1v1H4z M7 17h1v1H7zm0 1h1v1H7z M8 17h1v1H8zm0 1h1v1H8zm0 1h1v1H8z M9 14h1v1H9zm0 1h1v1H9zm0 1h1v1H9z M9 19h1v1H9z M10 11h1v1h-1zm0 1h1v1h-1zm0 1h1v1h-1zm0 1h1v1h-1zm0 1h1v1h-1zm0 1h1v1h-1zm0 1h1v1h-1z M11 10h1v1h-1z M11 12h1v1h-1zm0 1h1v1h-1zm0 1h1v1h-1zm0 1h1v1h-1zm0 1h1v1h-1zm0 1h1v1h-1zm0 1h1v1h-1z M12 11h1v1h-1zm0 1h1v1h-1zm0 1h1v1h-1zm0 1h1v1h-1zm0 1h1v1h-1zm0 1h1v1h-1zm0 1h1v1h-1zm0 1h1v1h-1z M13 12h1v1h-1zm0 1h1v1h-1zm0 1h1v1h-1z M13 17h1v1h-1zm0 1h1v1h-1z M14 12h1v1h-1zm0 1h1v1h-1zm0 1h1v1h-1zm0 1h1v1h-1zm0 1h1v1h-1zm0 1h1v1h-1zm0 1h1v1h-1z M15 12h1v1h-1zm0 1h1v1h-1zm0 1h1v1h-1zm0 1h1v1h-1zm0 1h1v1h-1z M15 18h1v1h-1z M16 11h1v1h-1zm0 1h1v1h-1zm0 1h1v1h-1zm0 1h1v1h-1zm0 1h1v1h-1zm0 1h1v1h-1zm0 1h1v1h-1zm0 1h1v1h-1z M17 10h1v1h-1z M17 12h1v1h-1zm0 1h1v1h-1zm0 1h1v1h-1z M17 17h1v1h-1z M18 14h1v1h-1zm0 1h1v1h-1zm0 1h1v1h-1z"/>
    <path fill="#6D4B39" d="M5 18h1v1H5z M6 18h1v1H6zm0 1h1v1H6z M7 19h1v1H7zm0 1h1v1H7zm0 1h1v1H7z M8 20h1v1H8zm0 1h1v1H8zm0 1h1v1H8z M9 17h1v1H9zm0 1h1v1H9z M9 20h1v1H9zm0 1h1v1H9z M9 23h1v1H9z M10 18h1v1h-1zm0 1h1v1h-1zm0 1h1v1h-1zm0 1h1v1h-1z M11 19h1v1h-1zm0 1h1v1h-1zm0 1h1v1h-1z M12 19h1v1h-1zm0 1h1v1h-1zm0 1h1v1h-1z M12 23h1v1h-1z M13 19h1v1h-1zm0 1h1v1h-1zm0 1h1v1h-1zm0 1h1v1h-1z M14 19h1v1h-1zm0 1h1v1h-1zm0 1h1v1h-1z M15 19h1v1h-1zm0 1h1v1h-1z"/>
    <path fill="#F4CCA1" d="M3 15h1v1H3z M11 11h1v1h-1z M17 11h1v1h-1z"/>
  </g>
  <path fill="#3C291A" d="M7 22h1v1H7z M8 23h1v1H8z M13 15h1v1h-1zm0 1h1v1h-1z M14 22h1v1h-1zm0 1h1v1h-1z M15 17h1v1h-1z M17 15h1v1h-1zm0 1h1v1h-1z"/>
  <path fill="#000" d="M2 15h1v1H2zm0 1h1v1H2zm1-2h1v1H3z M3 17h1v1H3zm1-2h1v1H4zm0 1h1v1H4z M4 18h1v1H4zm1-1h1v1H5z M5 19h1v1H5zm1-2h1v1H6z M6 20h1v1H6zm0 1h1v1H6zm0 1h1v1H6zm1-6h1v1H7z M7 23h1v1H7zm1-9h1v1H8zm0 1h1v1H8zm0 1h1v1H8z M8 24h1v1H8zm1-13h1v1H9zm0 1h1v1H9zm0 1h1v1H9z M9 22h1v1H9z M9 24h1v1H9zm1-14h1v1h-1z M10 22h1v1h-1zm0 1h1v1h-1zm1-14h1v1h-1z M11 22h1v1h-1zm0 1h1v1h-1zm1-13h1v1h-1z M12 22h1v1h-1z M12 24h1v1h-1zm1-13h1v1h-1z M13 23h1v1h-1zm1-12h1v1h-1z M14 24h1v1h-1zm1-13h1v1h-1z M15 21h1v1h-1zm0 1h1v1h-1zm0 1h1v1h-1zm1-13h1v1h-1z M16 19h1v1h-1zm0 1h1v1h-1zm1-11h1v1h-1z M17 18h1v1h-1zm1-8h1v1h-1zm0 1h1v1h-1zm0 1h1v1h-1zm0 1h1v1h-1z M18 17h1v1h-1zm1-3h1v1h-1zm0 1h1v1h-1zm0 1h1v1h-1z"/>
</svg>
