<svg width="25" height="25" fill="none" xmlns="http://www.w3.org/2000/svg">
  <path fill="#000" d="M2 16h1v1H2zM2 17h1v1H2zM3 14h1v1H3zM3 15h1v1H3zM3 18h1v1H3zM4 13h1v1H4zM4 16h1v1H4zM4 17h1v1H4zM5 12h1v1H5zM5 15h1v1H5zM5 16h1v1H5zM5 17h1v1H5zM5 18h1v1H5zM6 11h1v1H6zM6 19h1v1H6zM7 11h1v1H7zM7 17h1v1H7zM7 18h1v1H7zM8 10h1v1H8zM8 19h1v1H8zM9 10h1v1H9zM9 17h1v1H9zM9 18h1v1H9zM10 10h1v1h-1zM10 17h1v1h-1zM11 10h1v1h-1zM11 17h1v1h-1zM12 9h1v1h-1zM12 18h1v1h-1zM13 8h1v1h-1zM13 19h1v1h-1zM14 9h1v1h-1zM14 19h1v1h-1zM15 10h1v1h-1zM15 18h1v1h-1zM16 10h1v1h-1zM16 18h1v1h-1zM17 10h1v1h-1zM17 19h1v1h-1zM18 9h1v1h-1zM18 19h1v1h-1zM19 8h1v1h-1zM19 17h1v1h-1zM19 18h1v1h-1zM20 9h1v1h-1zM20 10h1v1h-1zM20 11h1v1h-1zM20 12h1v1h-1zM20 16h1v1h-1zM21 13h1v1h-1zM21 14h1v1h-1zM21 15h1v1h-1z"/>
  <path fill="#000" d="M3 16h1v1H3zM4 15h1v1H4zM6 12h1v1H6zM6 13h1v1H6zM7 12h1v1H7zM7 13h1v1H7zM8 11h1v1H8zM8 12h1v1H8zM8 13h1v1H8zM9 11h1v1H9zM9 12h1v1H9zM10 11h1v1h-1zM11 13h1v1h-1zM11 14h1v1h-1zM11 15h1v1h-1zM12 10h1v1h-1zM12 11h1v1h-1zM12 12h1v1h-1zM12 13h1v1h-1zM12 14h1v1h-1zM12 15h1v1h-1zM12 16h1v1h-1zM13 9h1v1h-1zM13 11h1v1h-1zM13 12h1v1h-1zM13 13h1v1h-1zM13 14h1v1h-1zM13 15h1v1h-1zM13 16h1v1h-1zM13 17h1v1h-1zM14 10h1v1h-1zM14 11h1v1h-1zM14 12h1v1h-1zM14 13h1v1h-1zM14 16h1v1h-1zM14 17h1v1h-1zM15 11h1v1h-1zM15 12h1v1h-1zM15 17h1v1h-1zM16 11h1v1h-1zM16 12h1v1h-1zM16 13h1v1h-1zM16 16h1v1h-1zM16 17h1v1h-1zM17 11h1v1h-1zM17 12h1v1h-1zM17 13h1v1h-1zM17 14h1v1h-1zM17 15h1v1h-1zM17 17h1v1h-1zM18 10h1v1h-1zM18 11h1v1h-1zM18 12h1v1h-1zM18 13h1v1h-1zM18 16h1v1h-1zM18 17h1v1h-1zM19 9h1v1h-1zM19 11h1v1h-1zM19 12h1v1h-1zM20 13h1v1h-1z"/>
  <path fill="#000" d="M3 17h1v1H3zM13 10h1v1h-1zM19 10h1v1h-1z"/>
  <path fill="#000" d="M4 14h1v1H4zM5 13h1v1H5zM5 14h1v1H5zM6 14h1v1H6zM6 15h1v1H6zM6 16h1v1H6zM6 17h1v1H6zM6 18h1v1H6zM7 14h1v1H7zM7 15h1v1H7zM7 16h1v1H7zM8 14h1v1H8zM8 15h1v1H8zM8 16h1v1H8zM9 13h1v1H9zM9 14h1v1H9zM9 15h1v1H9zM9 16h1v1H9zM10 12h1v1h-1zM10 13h1v1h-1zM10 14h1v1h-1zM10 15h1v1h-1zM10 16h1v1h-1zM11 11h1v1h-1zM11 12h1v1h-1zM11 16h1v1h-1zM12 17h1v1h-1zM13 18h1v1h-1zM14 15h1v1h-1zM14 18h1v1h-1zM15 16h1v1h-1zM16 15h1v1h-1zM18 15h1v1h-1zM19 16h1v1h-1zM20 15h1v1h-1z"/>
  <path fill="#000" d="M8 17h1v1H8zM8 18h1v1H8zM14 14h1v1h-1zM15 13h1v1h-1zM15 14h1v1h-1zM15 15h1v1h-1zM16 14h1v1h-1zM17 16h1v1h-1zM17 18h1v1h-1zM18 14h1v1h-1zM18 18h1v1h-1zM19 13h1v1h-1zM19 14h1v1h-1zM19 15h1v1h-1zM20 14h1v1h-1z"/>
</svg>
