<svg width="20" height="13" viewBox="0 0 20 13" fill="none" xmlns="http://www.w3.org/2000/svg">
<g opacity="0.94">
<rect x="3" y="8" width="1" height="1" fill="#6D4B39"/>
<rect x="4" y="8" width="1" height="1" fill="#6D4B39"/>
<rect x="4" y="9" width="1" height="1" fill="#6D4B39"/>
<rect x="5" y="10" width="1" height="1" fill="#6D4B39"/>
<rect x="5" y="11" width="1" height="1" fill="#6D4B39"/>
<rect x="5" y="9" width="1" height="1" fill="#6D4B39"/>
<rect x="6" y="10" width="1" height="1" fill="#6D4B39"/>
<rect x="6" y="11" width="1" height="1" fill="#6D4B39"/>
<rect x="7" y="10" width="1" height="1" fill="#6D4B39"/>
<rect x="7" y="11" width="1" height="1" fill="#6D4B39"/>
<rect x="8" y="8" width="1" height="1" fill="#6D4B39"/>
<rect x="8" y="10" width="1" height="1" fill="#6D4B39"/>
<rect x="8" y="11" width="1" height="1" fill="#6D4B39"/>
<rect x="9" y="8" width="1" height="1" fill="#6D4B39"/>
<rect x="9" y="9" width="1" height="1" fill="#6D4B39"/>
<rect x="9" y="10" width="1" height="1" fill="#6D4B39"/>
<rect x="9" y="11" width="1" height="1" fill="#6D4B39"/>
<rect x="10" y="9" width="1" height="1" fill="#6D4B39"/>
<rect x="10" y="10" width="1" height="1" fill="#6D4B39"/>
<rect x="10" y="11" width="1" height="1" fill="#6D4B39"/>
<rect x="11" y="10" width="1" height="1" fill="#6D4B39"/>
<rect x="11" y="11" width="1" height="1" fill="#6D4B39"/>
<rect x="12" y="10" width="1" height="1" fill="#6D4B39"/>
<rect x="12" y="11" width="1" height="1" fill="#6D4B39"/>
<rect x="13" y="10" width="1" height="1" fill="#6D4B39"/>
<rect x="7" y="7" width="1" height="1" fill="#6D4B39"/>
<rect x="8" y="7" width="1" height="1" fill="#6D4B39"/>
<rect x="1" y="5" width="1" height="1" fill="#F4CCA1"/>
<rect x="11" y="2" width="1" height="1" fill="#F4CCA1"/>
<rect x="17" y="2" width="1" height="1" fill="#F4CCA1"/>
<rect x="13" y="6" width="1" height="1" fill="#3C291A"/>
<rect x="13" y="5" width="1" height="1" fill="#3C291A"/>
<rect x="17" y="6" width="1" height="1" fill="#3C291A"/>
<rect x="17" y="5" width="1" height="1" fill="#3C291A"/>
<rect x="15" y="7" width="1" height="1" fill="#3C291A"/>
<rect x="2" y="7" width="1" height="1" fill="#967D67"/>
<rect x="1" y="6" width="1" height="1" fill="#967D67"/>
<rect x="7" y="9" width="1" height="1" fill="#967D67"/>
<rect x="8" y="9" width="1" height="1" fill="#967D67"/>
<rect x="5" y="8" width="1" height="1" fill="#967D67"/>
<rect x="6" y="8" width="1" height="1" fill="#967D67"/>
<rect x="7" y="8" width="1" height="1" fill="#967D67"/>
<rect x="9" y="6" width="1" height="1" fill="#967D67"/>
<rect x="9" y="5" width="1" height="1" fill="#967D67"/>
<rect x="10" y="6" width="1" height="1" fill="#967D67"/>
<rect x="10" y="5" width="1" height="1" fill="#967D67"/>
<rect x="10" y="4" width="1" height="1" fill="#967D67"/>
<rect x="10" y="3" width="1" height="1" fill="#967D67"/>
<rect x="10" y="2" width="1" height="1" fill="#967D67"/>
<rect x="10" y="8" width="1" height="1" fill="#967D67"/>
<rect x="11" y="6" width="1" height="1" fill="#967D67"/>
<rect x="11" y="5" width="1" height="1" fill="#967D67"/>
<rect x="11" y="4" width="1" height="1" fill="#967D67"/>
<rect x="11" y="3" width="1" height="1" fill="#967D67"/>
<rect x="11" y="1" width="1" height="1" fill="#967D67"/>
<rect x="11" y="8" width="1" height="1" fill="#967D67"/>
<rect x="11" y="9" width="1" height="1" fill="#967D67"/>
<rect x="12" y="6" width="1" height="1" fill="#967D67"/>
<rect x="12" y="5" width="1" height="1" fill="#967D67"/>
<rect x="12" y="4" width="1" height="1" fill="#967D67"/>
<rect x="12" y="3" width="1" height="1" fill="#967D67"/>
<rect x="12" y="2" width="1" height="1" fill="#967D67"/>
<rect x="12" y="8" width="1" height="1" fill="#967D67"/>
<rect x="12" y="9" width="1" height="1" fill="#967D67"/>
<rect x="13" y="4" width="1" height="1" fill="#967D67"/>
<rect x="13" y="3" width="1" height="1" fill="#967D67"/>
<rect x="13" y="8" width="1" height="1" fill="#967D67"/>
<rect x="13" y="9" width="1" height="1" fill="#967D67"/>
<rect x="14" y="6" width="1" height="1" fill="#967D67"/>
<rect x="14" y="5" width="1" height="1" fill="#967D67"/>
<rect x="14" y="4" width="1" height="1" fill="#967D67"/>
<rect x="14" y="3" width="1" height="1" fill="#967D67"/>
<rect x="14" y="8" width="1" height="1" fill="#967D67"/>
<rect x="14" y="9" width="1" height="1" fill="#967D67"/>
<rect x="15" y="6" width="1" height="1" fill="#967D67"/>
<rect x="15" y="5" width="1" height="1" fill="#967D67"/>
<rect x="15" y="4" width="1" height="1" fill="#967D67"/>
<rect x="15" y="3" width="1" height="1" fill="#967D67"/>
<rect x="15" y="8" width="1" height="1" fill="#967D67"/>
<rect x="15" y="9" width="1" height="1" fill="#967D67"/>
<rect x="16" y="6" width="1" height="1" fill="#967D67"/>
<rect x="16" y="5" width="1" height="1" fill="#967D67"/>
<rect x="16" y="4" width="1" height="1" fill="#967D67"/>
<rect x="16" y="3" width="1" height="1" fill="#967D67"/>
<rect x="16" y="2" width="1" height="1" fill="#967D67"/>
<rect x="16" y="8" width="1" height="1" fill="#967D67"/>
<rect x="16" y="9" width="1" height="1" fill="#967D67"/>
<rect x="17" y="4" width="1" height="1" fill="#967D67"/>
<rect x="17" y="3" width="1" height="1" fill="#967D67"/>
<rect x="17" y="1" width="1" height="1" fill="#967D67"/>
<rect x="17" y="8" width="1" height="1" fill="#967D67"/>
<rect x="18" y="6" width="1" height="1" fill="#967D67"/>
<rect x="18" y="5" width="1" height="1" fill="#967D67"/>
<rect x="6" y="9" width="1" height="1" fill="#967D67"/>
<rect x="5" y="7" width="1" height="1" fill="#967D67"/>
<rect x="6" y="7" width="1" height="1" fill="#967D67"/>
<rect x="9" y="7" width="1" height="1" fill="#967D67"/>
<rect x="10" y="7" width="1" height="1" fill="#967D67"/>
<rect x="11" y="7" width="1" height="1" fill="#967D67"/>
<rect x="12" y="7" width="1" height="1" fill="#967D67"/>
<rect x="13" y="7" width="1" height="1" fill="#967D67"/>
<rect x="14" y="7" width="1" height="1" fill="#967D67"/>
<rect x="16" y="7" width="1" height="1" fill="#967D67"/>
<rect x="17" y="7" width="1" height="1" fill="#967D67"/>
<rect x="18" y="7" width="1" height="1" fill="#967D67"/>
<rect y="5" width="1" height="1" fill="black"/>
<rect x="1" y="4" width="1" height="1" fill="black"/>
<rect y="6" width="1" height="1" fill="black"/>
<rect x="2" y="5" width="1" height="1" fill="black"/>
<rect x="2" y="6" width="1" height="1" fill="black"/>
<rect x="3" y="7" width="1" height="1" fill="black"/>
<rect x="3" y="9" width="1" height="1" fill="black"/>
<rect x="4" y="10" width="1" height="1" fill="black"/>
<rect x="2" y="8" width="1" height="1" fill="black"/>
<rect x="4" y="7" width="1" height="1" fill="black"/>
<rect x="4" y="11" width="1" height="1" fill="black"/>
<rect x="5" y="6" width="1" height="1" fill="black"/>
<rect x="5" y="12" width="1" height="1" fill="black"/>
<rect x="6" y="6" width="1" height="1" fill="black"/>
<rect x="6" y="12" width="1" height="1" fill="black"/>
<rect x="7" y="6" width="1" height="1" fill="black"/>
<rect x="7" y="12" width="1" height="1" fill="black"/>
<rect x="8" y="6" width="1" height="1" fill="black"/>
<rect x="8" y="5" width="1" height="1" fill="black"/>
<rect x="8" y="12" width="1" height="1" fill="black"/>
<rect x="9" y="4" width="1" height="1" fill="black"/>
<rect x="9" y="3" width="1" height="1" fill="black"/>
<rect x="9" y="2" width="1" height="1" fill="black"/>
<rect x="9" y="12" width="1" height="1" fill="black"/>
<rect x="10" y="1" width="1" height="1" fill="black"/>
<rect x="10" y="12" width="1" height="1" fill="black"/>
<rect x="11" width="1" height="1" fill="black"/>
<rect x="11" y="12" width="1" height="1" fill="black"/>
<rect x="12" y="1" width="1" height="1" fill="black"/>
<rect x="12" y="12" width="1" height="1" fill="black"/>
<rect x="13" y="2" width="1" height="1" fill="black"/>
<rect x="13" y="11" width="1" height="1" fill="black"/>
<rect x="14" y="2" width="1" height="1" fill="black"/>
<rect x="14" y="10" width="1" height="1" fill="black"/>
<rect x="15" y="2" width="1" height="1" fill="black"/>
<rect x="15" y="10" width="1" height="1" fill="black"/>
<rect x="16" y="1" width="1" height="1" fill="black"/>
<rect x="16" y="10" width="1" height="1" fill="black"/>
<rect x="17" width="1" height="1" fill="black"/>
<rect x="17" y="9" width="1" height="1" fill="black"/>
<rect x="18" y="4" width="1" height="1" fill="black"/>
<rect x="18" y="3" width="1" height="1" fill="black"/>
<rect x="18" y="2" width="1" height="1" fill="black"/>
<rect x="18" y="1" width="1" height="1" fill="black"/>
<rect x="18" y="8" width="1" height="1" fill="black"/>
<rect x="19" y="6" width="1" height="1" fill="black"/>
<rect x="19" y="5" width="1" height="1" fill="black"/>
<rect x="1" y="7" width="1" height="1" fill="black"/>
<rect x="19" y="7" width="1" height="1" fill="black"/>
</g>
</svg>
