<svg xmlns="http://www.w3.org/2000/svg" width="20" height="13" fill="none">
  <path fill="#000" d="M3 8h1v1H3zm1 0h1v1H4zm0 1h1v1H4zm1 1h1v1H5zm0 1h1v1H5zm0-2h1v1H5zm1 1h1v1H6zm0 1h1v1H6zm1-1h1v1H7zm0 1h1v1H7zm1-3h1v1H8zm0 2h1v1H8zm0 1h1v1H8zm1-3h1v1H9zm0 1h1v1H9zm0 1h1v1H9zm0 1h1v1H9zm1-2h1v1h-1zm0 1h1v1h-1zm0 1h1v1h-1zm1-1h1v1h-1zm0 1h1v1h-1zm1-1h1v1h-1zm0 1h1v1h-1zm1-1h1v1h-1zM7 7h1v1H7zm1 0h1v1H8z"/>
  <path fill="#000" d="M1 5h1v1H1zm10-3h1v1h-1zm6 0h1v1h-1z"/>
  <path fill="#000" d="M13 6h1v1h-1zm0-1h1v1h-1zm4 1h1v1h-1zm0-1h1v1h-1zm-2 2h1v1h-1z"/>
  <path fill="#000" d="M2 7h1v1H2zM1 6h1v1H1zm6 3h1v1H7zm1 0h1v1H8zM5 8h1v1H5zm1 0h1v1H6zm1 0h1v1H7zm2-2h1v1H9zm0-1h1v1H9zm1 1h1v1h-1zm0-1h1v1h-1zm0-1h1v1h-1zm0-1h1v1h-1zm0-1h1v1h-1zm0 6h1v1h-1zm1-2h1v1h-1zm0-1h1v1h-1zm0-1h1v1h-1zm0-1h1v1h-1zm0-2h1v1h-1zm0 7h1v1h-1zm0 1h1v1h-1zm1-3h1v1h-1zm0-1h1v1h-1zm0-1h1v1h-1zm0-1h1v1h-1zm0-1h1v1h-1zm0 6h1v1h-1zm0 1h1v1h-1zm1-5h1v1h-1zm0-1h1v1h-1zm0 5h1v1h-1zm0 1h1v1h-1zm1-3h1v1h-1zm0-1h1v1h-1zm0-1h1v1h-1zm0-1h1v1h-1zm0 5h1v1h-1zm0 1h1v1h-1zm1-3h1v1h-1zm0-1h1v1h-1zm0-1h1v1h-1zm0-1h1v1h-1zm0 5h1v1h-1zm0 1h1v1h-1zm1-3h1v1h-1zm0-1h1v1h-1zm0-1h1v1h-1zm0-1h1v1h-1zm0-1h1v1h-1zm0 6h1v1h-1zm0 1h1v1h-1zm1-5h1v1h-1zm0-1h1v1h-1zm0-2h1v1h-1zm0 7h1v1h-1zm1-2h1v1h-1zm0-1h1v1h-1zM6 9h1v1H6zM5 7h1v1H5zm1 0h1v1H6zm3 0h1v1H9zm1 0h1v1h-1zm1 0h1v1h-1zm1 0h1v1h-1zm1 0h1v1h-1zm1 0h1v1h-1zm2 0h1v1h-1zm1 0h1v1h-1zm1 0h1v1h-1z"/>
  <path fill="#000" d="M0 5h1v1H0zm1-1h1v1H1zM0 6h1v1H0zm2-1h1v1H2zm0 1h1v1H2zm1 1h1v1H3zm0 2h1v1H3zm1 1h1v1H4zM2 8h1v1H2zm2-1h1v1H4zm0 4h1v1H4zm1-5h1v1H5zm0 6h1v1H5zm1-6h1v1H6zm0 6h1v1H6zm1-6h1v1H7zm0 6h1v1H7zm1-6h1v1H8zm0-1h1v1H8zm0 7h1v1H8zm1-8h1v1H9zm0-1h1v1H9zm0-1h1v1H9zm0 10h1v1H9zm1-11h1v1h-1zm0 11h1v1h-1zm1-12h1v1h-1zm0 12h1v1h-1zm1-11h1v1h-1zm0 11h1v1h-1zm1-10h1v1h-1zm0 9h1v1h-1zm1-9h1v1h-1zm0 8h1v1h-1zm1-8h1v1h-1zm0 8h1v1h-1zm1-9h1v1h-1zm0 9h1v1h-1zm1-10h1v1h-1zm0 9h1v1h-1zm1-5h1v1h-1zm0-1h1v1h-1zm0-1h1v1h-1zm0-1h1v1h-1zm0 7h1v1h-1zm1-2h1v1h-1zm0-1h1v1h-1zM1 7h1v1H1zm18 0h1v1h-1z"/>
</svg>
