<svg width="25" height="25" fill="none" xmlns="http://www.w3.org/2000/svg">
  <path fill="#000" d="M0 15h1v1H0zM1 14h1v1H1zM1 16h1v1H1zM2 13h1v1H2zM2 15h1v1H2zM3 13h1v1H3zM3 15h1v1H3zM4 12h1v1H4zM4 14h1v1H4zM5 12h1v1H5zM5 14h1v1H5zM5 17h1v1H5zM5 18h1v1H5zM6 12h1v1H6zM6 15h1v1H6zM6 16h1v1H6zM6 19h1v1H6zM7 11h1v1H7zM7 18h1v1H7zM8 11h1v1H8zM8 19h1v1H8zM9 11h1v1H9zM9 18h1v1H9zM10 12h1v1h-1zM10 18h1v1h-1zM11 12h1v1h-1zM11 19h1v1h-1zM12 12h1v1h-1zM12 20h1v1h-1zM13 11h1v1h-1zM13 21h1v1h-1zM14 10h1v1h-1zM14 21h1v1h-1zM15 11h1v1h-1zM15 20h1v1h-1zM16 12h1v1h-1zM16 20h1v1h-1zM17 12h1v1h-1zM17 21h1v1h-1zM18 12h1v1h-1zM18 21h1v1h-1zM19 11h1v1h-1zM19 20h1v1h-1zM20 10h1v1h-1zM20 19h1v1h-1zM21 11h1v1h-1zM21 12h1v1h-1zM21 13h1v1h-1zM21 14h1v1h-1zM21 18h1v1h-1zM22 15h1v1h-1zM22 16h1v1h-1zM22 17h1v1h-1z"/>
  <path fill="#000" d="M1 15h1v1H1zM14 12h1v1h-1zM20 12h1v1h-1z"/>
  <path fill="#000" d="M2 14h1v1H2zM3 14h1v1H3zM7 12h1v1H7zM7 13h1v1H7zM8 12h1v1H8zM8 13h1v1H8zM9 12h1v1H9zM9 13h1v1H9zM9 14h1v1H9zM10 13h1v1h-1zM10 14h1v1h-1zM11 13h1v1h-1zM12 15h1v1h-1zM12 16h1v1h-1zM12 17h1v1h-1zM13 12h1v1h-1zM13 13h1v1h-1zM13 14h1v1h-1zM13 15h1v1h-1zM13 16h1v1h-1zM13 17h1v1h-1zM13 18h1v1h-1zM14 11h1v1h-1zM14 13h1v1h-1zM14 14h1v1h-1zM14 15h1v1h-1zM14 16h1v1h-1zM14 17h1v1h-1zM14 18h1v1h-1zM14 19h1v1h-1zM15 12h1v1h-1zM15 13h1v1h-1zM15 14h1v1h-1zM15 15h1v1h-1zM15 18h1v1h-1zM15 19h1v1h-1zM16 13h1v1h-1zM16 14h1v1h-1zM16 19h1v1h-1zM17 13h1v1h-1zM17 14h1v1h-1zM17 15h1v1h-1zM17 18h1v1h-1zM17 19h1v1h-1zM18 13h1v1h-1zM18 14h1v1h-1zM18 15h1v1h-1zM18 16h1v1h-1zM18 17h1v1h-1zM18 19h1v1h-1zM19 12h1v1h-1zM19 13h1v1h-1zM19 14h1v1h-1zM19 15h1v1h-1zM19 18h1v1h-1zM19 19h1v1h-1zM20 11h1v1h-1zM20 13h1v1h-1zM20 14h1v1h-1zM21 15h1v1h-1z"/>
  <path fill="#000" d="M4 13h1v1H4zM5 13h1v1H5zM6 13h1v1H6zM6 14h1v1H6zM6 17h1v1H6zM6 18h1v1H6zM7 14h1v1H7zM7 15h1v1H7zM7 16h1v1H7zM7 17h1v1H7zM8 14h1v1H8zM8 15h1v1H8zM8 16h1v1H8zM9 15h1v1H9zM9 16h1v1H9zM10 15h1v1h-1zM10 16h1v1h-1zM10 17h1v1h-1zM11 14h1v1h-1zM11 15h1v1h-1zM11 16h1v1h-1zM11 17h1v1h-1zM11 18h1v1h-1zM12 13h1v1h-1zM12 14h1v1h-1zM12 18h1v1h-1zM12 19h1v1h-1zM13 19h1v1h-1zM13 20h1v1h-1zM14 20h1v1h-1zM15 17h1v1h-1zM16 18h1v1h-1zM17 17h1v1h-1zM19 17h1v1h-1zM20 18h1v1h-1zM21 17h1v1h-1z"/>
  <path fill="#000" d="M8 17h1v1H8zM8 18h1v1H8zM9 17h1v1H9zM15 16h1v1h-1zM16 15h1v1h-1zM16 16h1v1h-1zM16 17h1v1h-1zM17 16h1v1h-1zM17 20h1v1h-1zM18 18h1v1h-1zM18 20h1v1h-1zM19 16h1v1h-1zM20 15h1v1h-1zM20 16h1v1h-1zM20 17h1v1h-1zM21 16h1v1h-1z"/>
</svg>
