<svg xmlns="http://www.w3.org/2000/svg" width="25" height="25" fill="none">
  <g opacity=".4">
    <path fill="#6D4B39" d="M3 20h1v1H3z M4 17h1v1H4z M4 20h1v1H4z M5 17h1v1H5zm0 1h1v1H5z M5 20h1v1H5z M6 18h1v1H6zm0 1h1v1H6zm0 1h1v1H6z M7 19h1v1H7zm0 1h1v1H7z M8 19h1v1H8zm0 1h1v1H8z M9 16h1v1H9zm0 1h1v1H9z M9 19h1v1H9zm0 1h1v1H9z M10 17h1v1h-1zm0 1h1v1h-1zm0 1h1v1h-1zm0 1h1v1h-1z M11 18h1v1h-1zm0 1h1v1h-1zm0 1h1v1h-1z  M12 18h1v1h-1zm0 1h1v1h-1zm0 1h1v1h-1z  M13 18h1v1h-1zm0 1h1v1h-1zm0 1h1v1h-1z  M14 18h1v1h-1zm0 1h1v1h-1zm0 1h1v1h-1z M15 18h1v1h-1z  M15 20h1v1h-1z  M16 20h1v1h-1z  M17 20h1v1h-1z"/>
    <path fill="#967D67" d="M2 14h1v1H2z M3 15h1v1H3z M4 16h1v1H4z M6 16h1v1H6zm0 1h1v1H6z M7 16h1v1H7zm0 1h1v1H7zm0 1h1v1H7z M8 16h1v1H8zm0 1h1v1H8zm0 1h1v1H8z M9 13h1v1H9zm0 1h1v1H9zm0 1h1v1H9z M9 18h1v1H9z M10 10h1v1h-1zm0 1h1v1h-1zm0 1h1v1h-1zm0 1h1v1h-1zm0 1h1v1h-1zm0 1h1v1h-1zm0 1h1v1h-1z M11 9h1v1h-1z M11 11h1v1h-1zm0 1h1v1h-1zm0 1h1v1h-1zm0 1h1v1h-1zm0 1h1v1h-1zm0 1h1v1h-1zm0 1h1v1h-1z M12 10h1v1h-1zm0 1h1v1h-1zm0 1h1v1h-1zm0 1h1v1h-1zm0 1h1v1h-1zm0 1h1v1h-1zm0 1h1v1h-1zm0 1h1v1h-1z M13 11h1v1h-1zm0 1h1v1h-1zm0 1h1v1h-1z M13 16h1v1h-1zm0 1h1v1h-1z M14 11h1v1h-1zm0 1h1v1h-1zm0 1h1v1h-1zm0 1h1v1h-1zm0 1h1v1h-1zm0 1h1v1h-1zm0 1h1v1h-1z M15 11h1v1h-1zm0 1h1v1h-1zm0 1h1v1h-1zm0 1h1v1h-1zm0 1h1v1h-1z M15 17h1v1h-1z M16 10h1v1h-1zm0 1h1v1h-1zm0 1h1v1h-1zm0 1h1v1h-1zm0 1h1v1h-1zm0 1h1v1h-1zm0 1h1v1h-1zm0 1h1v1h-1z M17 9h1v1h-1z M17 11h1v1h-1zm0 1h1v1h-1zm0 1h1v1h-1z M17 16h1v1h-1z M18 13h1v1h-1zm0 1h1v1h-1zm0 1h1v1h-1z"/>
  </g>
    <path fill="#3C291A" d="M3 19h1v1H3z M4 19h1v1H4z M5 19h1v1H5z M13 14h1v1h-1zm0 1h1v1h-1z M15 16h1v1h-1z M15 19h1v1h-1z M16 19h1v1h-1z M17 14h1v1h-1zm0 1h1v1h-1z M17 19h1v1h-1z"/>
    <path fill="#F4CCA1" d="M2 13h1v1H2z M11 10h1v1h-1z M17 10h1v1h-1z"/>
  <path fill="#000" d="M1 13h1v1H1zm0 1h1v1H1zm1-2h1v1H2z M2 15h1v1H2zm0 4h1v1H2zm0 1h1v1H2zm1-7h1v1H3zm0 1h1v1H3z M3 16h1v1H3zm0 1h1v1H3zm0 1h1v1H3z M3 21h1v1H3zm1-6h1v1H4z M4 18h1v1H4z M4 21h1v1H4zm1-5h1v1H5z M5 21h1v1H5zm1-6h1v1H6z M6 21h1v1H6zm1-6h1v1H7z M7 21h1v1H7zm1-8h1v1H8zm0 1h1v1H8zm0 1h1v1H8z M8 21h1v1H8zm1-11h1v1H9zm0 1h1v1H9zm0 1h1v1H9z M9 21h1v1H9zm1-12h1v1h-1z M10 21h1v1h-1zm1-13h1v1h-1z M11 21h1v1h-1zm1-12h1v1h-1z M12 21h1v1h-1zm1-11h1v1h-1z M13 21h1v1h-1zm1-11h1v1h-1z M14 21h1v1h-1zm1-11h1v1h-1z M15 21h1v1h-1zm1-12h1v1h-1z M16 18h1v1h-1z M16 21h1v1h-1zm1-13h1v1h-1z M17 17h1v1h-1zm0 1h1v1h-1z M17 21h1v1h-1zm1-12h1v1h-1zm0 1h1v1h-1zm0 1h1v1h-1zm0 1h1v1h-1z M18 16h1v1h-1zm0 3h1v1h-1zm0 1h1v1h-1zm1-7h1v1h-1zm0 1h1v1h-1zm0 1h1v1h-1z"/>
</svg>
