<svg width="25" height="25" fill="none" xmlns="http://www.w3.org/2000/svg">
  <g opacity=".5">
    <path fill="#967D67" d="M3 19h1v1H3zM4 19h1v1H4zM7 19h1v1H7zM7 20h1v1H7zM8 19h1v1H8zM8 20h1v1H8zM8 21h1v1H8zM9 20h1v1H9zM9 21h1v1H9zM11 18h1v1h-1zM11 19h1v1h-1zM11 20h1v1h-1zM12 15h1v1h-1zM12 16h1v1h-1zM12 17h1v1h-1zM12 18h1v1h-1zM12 19h1v1h-1zM12 20h1v1h-1zM12 21h1v1h-1zM13 14h1v1h-1zM13 16h1v1h-1zM13 17h1v1h-1zM13 18h1v1h-1zM13 19h1v1h-1zM13 20h1v1h-1zM13 21h1v1h-1zM13 22h1v1h-1zM14 15h1v1h-1zM14 16h1v1h-1zM14 17h1v1h-1zM14 18h1v1h-1zM14 21h1v1h-1zM14 22h1v1h-1zM15 16h1v1h-1zM15 17h1v1h-1zM15 22h1v1h-1zM16 16h1v1h-1zM16 17h1v1h-1zM16 18h1v1h-1zM16 21h1v1h-1zM16 22h1v1h-1zM17 16h1v1h-1zM17 17h1v1h-1zM17 18h1v1h-1zM17 19h1v1h-1zM17 20h1v1h-1zM17 22h1v1h-1zM18 15h1v1h-1zM18 16h1v1h-1zM18 17h1v1h-1zM18 18h1v1h-1zM18 21h1v1h-1zM18 22h1v1h-1zM19 14h1v1h-1zM19 16h1v1h-1zM19 17h1v1h-1zM20 18h1v1h-1z"/>
    <path fill="#6D4B39" d="M5 20h1v1H5zM6 20h1v1H6zM6 21h1v1H6zM7 21h1v1H7zM7 22h1v1H7zM7 23h1v1H7zM8 22h1v1H8zM8 23h1v1H8zM9 19h1v1H9zM9 22h1v1H9zM9 23h1v1H9zM10 19h1v1h-1zM10 20h1v1h-1zM10 21h1v1h-1zM10 22h1v1h-1zM10 23h1v1h-1zM11 21h1v1h-1zM11 22h1v1h-1zM11 23h1v1h-1zM12 22h1v1h-1zM12 23h1v1h-1zM13 23h1v1h-1zM14 20h1v1h-1zM14 23h1v1h-1zM15 21h1v1h-1zM15 23h1v1h-1zM16 20h1v1h-1zM18 20h1v1h-1zM19 21h1v1h-1zM20 20h1v1h-1z"/>
    <path fill="#3C291A" d="M14 19h1v1h-1zM15 18h1v1h-1zM15 19h1v1h-1zM15 20h1v1h-1zM16 19h1v1h-1zM17 21h1v1h-1zM18 19h1v1h-1zM19 18h1v1h-1zM19 19h1v1h-1zM19 20h1v1h-1zM20 19h1v1h-1z"/>
  </g>
  <path fill="#F4CCA1" d="M2 19h1v1H2zM13 15h1v1h-1zM19 15h1v1h-1z"/>
  <path fill="#000" d="M1 19h1v1H1zM2 18h1v1H2zM2 20h1v1H2zM3 18h1v1H3zM3 20h1v1H3zM4 18h1v1H4zM4 20h1v1H4zM5 19h1v1H5zM5 21h1v1H5zM6 19h1v1H6zM6 22h1v1H6zM6 23h1v1H6zM7 18h1v1H7zM7 24h1v1H7zM8 18h1v1H8zM8 24h1v1H8zM9 18h1v1H9zM9 24h1v1H9zM10 18h1v1h-1zM10 24h1v1h-1zM11 15h1v1h-1zM11 16h1v1h-1zM11 17h1v1h-1zM11 24h1v1h-1zM12 14h1v1h-1zM12 24h1v1h-1zM13 13h1v1h-1zM13 24h1v1h-1zM14 14h1v1h-1zM14 24h1v1h-1zM15 15h1v1h-1zM16 15h1v1h-1zM16 23h1v1h-1zM17 15h1v1h-1zM17 23h1v1h-1zM18 14h1v1h-1zM18 23h1v1h-1zM19 13h1v1h-1zM19 22h1v1h-1zM20 14h1v1h-1zM20 15h1v1h-1zM20 16h1v1h-1zM20 17h1v1h-1zM20 21h1v1h-1zM21 18h1v1h-1zM21 19h1v1h-1zM21 20h1v1h-1z"/>
</svg>
