<svg xmlns="http://www.w3.org/2000/svg" width="19" height="18" fill="none">
  <path fill="#000" d="M12 5h1v1h-1zm0 1h1v1h-1zm2 1h1v1h-1zm2-1h1v1h-1zm0-1h1v1h-1z"/>
  <path fill="#000" d="M10 2h1v1h-1zM1 16h1v1H1zM16 2h1v1h-1z"/>
  <path fill="#000" d="M9 0h1v1H9zm1 1h1v1h-1zm2 1h1v1h-1zm-1-1h1v1h-1zm2 1h1v1h-1zm1 0h1v1h-1zm0-1h1v1h-1zm1-1h1v1h-1zm1 1h1v1h-1zm1 1h1v1h-1zm1 3h1v1h-1zm-1-2h1v1h-1zm1 3h1v1h-1zm-1-2h1v1h-1zm1 3h1v1h-1zm-1 1h1v1h-1zm-1 1h1v1h-1zm-1 1h1v1h-1zm-1 0h1v1h-1zm2 1h1v1h-1zm-1 1h1v1h-1zm-1 0h1v1h-1zm-1 0h1v1h-1zm-1 0h1v1h-1zm-1 1h1v1h-1zm-1 1h1v1h-1zm0 1h1v1h-1zm-1 1h1v1H9zm-1 1h1v1H8zm-1-1h1v1H7zm0-1h1v1H7zm-1 1h1v1H6zm-1 1h1v1H5zm-1-1h1v1H4zm0-1h1v1H4zm0-1h1v1H4zm1 0h1v1H5zm-2 1h1v1H3zm-1 1h1v1H2zm-1 1h1v1H1zm-1-1h1v1H0zm1-1h1v1H1zm1-1h1v1H2zm1-1h1v1H3zm1-1h1v1H4zm1-1h1v1H5zm1-1h1v1H6zm1-1h1v1H7zm0-1h1v1H7zm1-4h1v1H8zM7 7h1v1H7zm1-4h1v1H8zM7 6h1v1H7zm1-4h1v1H8zM7 5h1v1H7zm1-4h1v1H8z"/>
  <path fill="#000" d="M9 2h1v1H9zm2 0h1v1h-1zm4-1h1v1h-1zm0 1h1v1h-1zM9 3h1v1H9zm1 0h1v1h-1zm1 0h1v1h-1zm1 0h1v1h-1zm1 0h1v1h-1zm1 0h1v1h-1zm1 0h1v1h-1zm1 0h1v1h-1zm0 1h1v1h-1zm-1 0h1v1h-1zm-1 0h1v1h-1zm-1 0h1v1h-1zm-1 0h1v1h-1zm-1 0h1v1h-1zm-1 0h1v1h-1zM9 4h1v1H9zM8 5h1v1H8zm1 0h1v1H9zm1 0h1v1h-1zm1 0h1v1h-1zm2 0h1v1h-1zm1 0h1v1h-1zm1 0h1v1h-1zm2 0h1v1h-1zM8 6h1v1H8zm1 0h1v1H9zm1 0h1v1h-1zm1 0h1v1h-1zm2 0h1v1h-1zm1 0h1v1h-1zm1 0h1v1h-1zm2 0h1v1h-1zM8 7h1v1H8zm1 0h1v1H9zm1 0h1v1h-1zm1 0h1v1h-1zm1 0h1v1h-1zm1 0h1v1h-1zm2 0h1v1h-1zm1 0h1v1h-1zm1 0h1v1h-1zM9 8h1v1H9zm1 0h1v1h-1zm1 0h1v1h-1zm1 0h1v1h-1zm1 0h1v1h-1zm1 0h1v1h-1zm1 0h1v1h-1zm1 0h1v1h-1zm-6 1h1v1h-1zm1 0h1v1h-1zm1 0h1v1h-1zm1 0h1v1h-1zm1 0h1v1h-1zm1 0h1v1h-1zm-8 1h1v1H7zm1 0h1v1H8zm-2 1h1v1H6zm1 0h1v1H7zm1 0h1v1H8zm1 0h1v1H9zm1 0h1v1h-1zm1 0h1v1h-1zm-5 1h1v1H6zm-4 3h1v1H2zm5-3h1v1H7zM9 1h1v1H9z"/>
  <path fill="#000" d="M9 12h1v1H9zm-1 0h1v1H8zm2 1h1v1h-1zm-1 0h1v1H9zm0 1h1v1H9zm-1 0h1v1H8zm-1 0h1v1H7zm-1 0h1v1H6zm0 1h1v1H6zm-1 0h1v1H5zm0 1h1v1H5zm-2-2h1v1H3zm5-1h1v1H8zm-1 0h1v1H7zm-1 0h1v1H6zm-1 0h1v1H5zm-1 0h1v1H4zm1-1h1v1H5zm3-4h1v1H8zm0 1h1v1H8zm1 0h1v1H9zm0 1h1v1H9zm1 0h1v1h-1zm1 0h1v1h-1zm1 0h1v1h-1zm1 0h1v1h-1zm-1 1h1v1h-1z"/>
  <path fill="#000" d="M13 11h1v1h-1zm1 0h1v1h-1zm1 0h1v1h-1zm-7 4h1v1H8zm1 0h1v1H9zm-1 1h1v1H8z"/>
  <path fill="#000" d="M11 12h1v1h-1zm-1 0h1v1h-1z"/>
</svg>
