<svg width="25" height="25" fill="none" xmlns="http://www.w3.org/2000/svg">
  <g opacity=".4">
    <path fill="#F4CCA1" d="M4 12h1v1H4z M12 12h1v1h-1z M18 12h1v1h-1z"/>
    <path fill="#967D67" d="M5 13h1v1H5zm0 1h1v1H5z M7 14h1v1H7zm0 1h1v1H7z M8 14h1v1H8zm0 1h1v1H8zm0 1h1v1H8z M9 14h1v1H9z M10 15h1v1h-1zm0 1h1v1h-1zm0 1h1v1h-1z M11 12h1v1h-1zm0 1h1v1h-1zm0 1h1v1h-1zm0 1h1v1h-1zm0 1h1v1h-1zm0 1h1v1h-1zm0 1h1v1h-1z M12 11h1v1h-1z M12 13h1v1h-1zm0 1h1v1h-1zm0 1h1v1h-1zm0 1h1v1h-1zm0 1h1v1h-1zm0 1h1v1h-1zm0 1h1v1h-1z M13 12h1v1h-1zm0 1h1v1h-1zm0 1h1v1h-1zm0 1h1v1h-1zm0 1h1v1h-1zm0 1h1v1h-1zm0 1h1v1h-1zm0 1h1v1h-1z M14 13h1v1h-1zm0 1h1v1h-1zm0 1h1v1h-1z M14 18h1v1h-1zm0 1h1v1h-1z M15 13h1v1h-1zm0 1h1v1h-1zm0 1h1v1h-1zm0 1h1v1h-1zm0 1h1v1h-1zm0 1h1v1h-1zm0 1h1v1h-1z M16 13h1v1h-1zm0 1h1v1h-1zm0 1h1v1h-1zm0 1h1v1h-1zm0 1h1v1h-1z M16 19h1v1h-1z M17 12h1v1h-1zm0 1h1v1h-1zm0 1h1v1h-1zm0 1h1v1h-1zm0 1h1v1h-1zm0 1h1v1h-1zm0 1h1v1h-1zm0 1h1v1h-1z M18 11h1v1h-1z M18 13h1v1h-1zm0 1h1v1h-1zm0 1h1v1h-1z M18 18h1v1h-1z M19 15h1v1h-1zm0 1h1v1h-1zm0 1h1v1h-1z"/>
    <path fill="#6D4B39" d="M5 15h1v1H5z M6 15h1v1H6zm0 1h1v1H6z M7 16h1v1H7zm0 1h1v1H7z M8 17h1v1H8zm0 1h1v1H8z M8 21h1v1H8z M9 15h1v1H9zm0 1h1v1H9zm0 1h1v1H9zm0 1h1v1H9zm0 1h1v1H9zm0 1h1v1H9zm0 1h1v1H9z M10 18h1v1h-1zm0 1h1v1h-1zm0 1h1v1h-1z M11 19h1v1h-1zm0 1h1v1h-1zm0 1h1v1h-1z M12 20h1v1h-1zm0 1h1v1h-1zm0 1h1v1h-1zm0 1h1v1h-1z M13 20h1v1h-1zm0 1h1v1h-1z M14 20h1v1h-1zm0 1h1v1h-1z M15 20h1v1h-1zm0 1h1v1h-1z M16 20h1v1h-1z"/>
  </g>
  <path fill="#000" d="M3 12h1v1H3zm1-1h1v1H4z M4 13h1v1H4zm0 1h1v1H4zm0 1h1v1H4zm1-3h1v1H5z M5 16h1v1H5zm1-3h1v1H6zm0 1h1v1H6z M6 17h1v1H6zm1-4h1v1H7z M7 18h1v1H7zm0 3h1v1H7zm1-8h1v1H8z M8 19h1v1H8zm0 1h1v1H8z M8 22h1v1H8zm1-9h1v1H9z M9 23h1v1H9zm1-11h1v1h-1zm0 1h1v1h-1zm0 1h1v1h-1z M10 23h1v1h-1zm1-12h1v1h-1z M11 22h1v1h-1zm0 1h1v1h-1zm1-13h1v1h-1z M12 24h1v1h-1zm1-13h1v1h-1z M13 22h1v1h-1zm0 1h1v1h-1zm1-11h1v1h-1z M14 24h1v1h-1zm1-12h1v1h-1z M15 22h1v1h-1zm0 1h1v1h-1zm1-11h1v1h-1z M16 21h1v1h-1zm1-10h1v1h-1z M17 20h1v1h-1zm1-10h1v1h-1z M18 19h1v1h-1zm1-8h1v1h-1zm0 1h1v1h-1zm0 1h1v1h-1zm0 1h1v1h-1z M19 18h1v1h-1zm1-3h1v1h-1zm0 1h1v1h-1zm0 1h1v1h-1z"/>
  <path fill="#3C291A" d="M9 22h1v1H9z M10 21h1v1h-1zm0 1h1v1h-1z M14 16h1v1h-1zm0 1h1v1h-1z M14 22h1v1h-1zm0 1h1v1h-1z M16 18h1v1h-1z M18 16h1v1h-1zm0 1h1v1h-1z"/>
</svg>
